<svg width="40" height="40" viewBox="0 0 40 40" fill="none" xmlns="http://www.w3.org/2000/svg">
<g clip-path="url(#clip0_1468_2585)">
<path d="M20 30C21.1 30 22 29.1 22 28H18C18 29.1 18.9 30 20 30ZM26 24V19C26 15.93 24.37 13.36 21.5 12.68V12C21.5 11.17 20.83 10.5 20 10.5C19.17 10.5 18.5 11.17 18.5 12V12.68C15.64 13.36 14 15.92 14 19V24L12 26V27H28V26L26 24ZM24 25H16V19C16 16.52 17.51 14.5 20 14.5C22.49 14.5 24 16.52 24 19V25Z" fill="#49494C"/>
</g>
<rect x="20" y="6" width="16" height="16" rx="8" fill="#EA3829"/>
<path d="M28.0098 18.1094C27.4733 18.1094 26.9941 18.0169 26.5723 17.832C26.153 17.6471 25.821 17.3906 25.5762 17.0625C25.334 16.7318 25.2038 16.349 25.1855 15.9141H26.4121C26.4277 16.151 26.5072 16.3568 26.6504 16.5312C26.7962 16.7031 26.9863 16.8359 27.2207 16.9297C27.4551 17.0234 27.7155 17.0703 28.002 17.0703C28.3171 17.0703 28.5957 17.0156 28.8379 16.9062C29.0827 16.7969 29.2741 16.6445 29.4121 16.4492C29.5501 16.2513 29.6191 16.0234 29.6191 15.7656C29.6191 15.4974 29.5501 15.2617 29.4121 15.0586C29.2767 14.8529 29.0775 14.6914 28.8145 14.5742C28.554 14.457 28.2389 14.3984 27.8691 14.3984H27.1934V13.4141H27.8691C28.166 13.4141 28.4264 13.3607 28.6504 13.2539C28.877 13.1471 29.054 12.9987 29.1816 12.8086C29.3092 12.6159 29.373 12.3906 29.373 12.1328C29.373 11.8854 29.3171 11.6706 29.2051 11.4883C29.0957 11.3034 28.9395 11.1589 28.7363 11.0547C28.5358 10.9505 28.2988 10.8984 28.0254 10.8984C27.765 10.8984 27.5215 10.9466 27.2949 11.043C27.071 11.1367 26.8887 11.2721 26.748 11.4492C26.6074 11.6237 26.5319 11.8333 26.5215 12.0781H25.3535C25.3665 11.6458 25.4941 11.2656 25.7363 10.9375C25.9811 10.6094 26.304 10.3529 26.7051 10.168C27.1061 9.98307 27.5514 9.89062 28.041 9.89062C28.554 9.89062 28.9967 9.99089 29.3691 10.1914C29.7441 10.3893 30.0332 10.6536 30.2363 10.9844C30.4421 11.3151 30.5436 11.6771 30.541 12.0703C30.5436 12.5182 30.4186 12.8984 30.166 13.2109C29.916 13.5234 29.5827 13.7331 29.166 13.8398V13.9023C29.6973 13.9831 30.1087 14.194 30.4004 14.5352C30.6947 14.8763 30.8405 15.2995 30.8379 15.8047C30.8405 16.2448 30.7181 16.6393 30.4707 16.9883C30.2259 17.3372 29.8913 17.612 29.4668 17.8125C29.0423 18.0104 28.5566 18.1094 28.0098 18.1094Z" fill="white"/>
<defs>
<clipPath id="clip0_1468_2585">
<rect width="24" height="24" fill="white" transform="translate(8 8)"/>
</clipPath>
</defs>
</svg>
